<?xml version="1.0" encoding="UTF-8" standalone="no"?>
<svg
   width="464.10184pt"
   height="513.01184pt"
   viewBox="0 0 464.10185 513.01185"
   version="1.1"
   id="svg292"
   sodipodi:docname="closure_failure_illustration.svg"
   inkscape:version="1.2.1 (9c6d41e4, 2022-07-14)"
   xmlns:inkscape="http://www.inkscape.org/namespaces/inkscape"
   xmlns:sodipodi="http://sodipodi.sourceforge.net/DTD/sodipodi-0.dtd"
   xmlns="http://www.w3.org/2000/svg"
   xmlns:svg="http://www.w3.org/2000/svg"
   xmlns:rdf="http://www.w3.org/1999/02/22-rdf-syntax-ns#"
   xmlns:cc="http://creativecommons.org/ns#"
   xmlns:dc="http://purl.org/dc/elements/1.1/">
  <sodipodi:namedview
     id="namedview294"
     pagecolor="#ffffff"
     bordercolor="#000000"
     borderopacity="0.25"
     inkscape:showpageshadow="2"
     inkscape:pageopacity="0.0"
     inkscape:pagecheckerboard="0"
     inkscape:deskcolor="#d1d1d1"
     inkscape:document-units="pt"
     showgrid="false"
     inkscape:zoom="0.31118144"
     inkscape:cx="33.742372"
     inkscape:cy="340.63728"
     inkscape:window-width="1309"
     inkscape:window-height="456"
     inkscape:window-x="180"
     inkscape:window-y="158"
     inkscape:window-maximized="0"
     inkscape:current-layer="svg292" />
  <metadata
     id="metadata132">
    <rdf:RDF>
      <cc:Work>
        <dc:type
           rdf:resource="http://purl.org/dc/dcmitype/StillImage" />
        <dc:date>2022-11-29T11:19:04.593622</dc:date>
        <dc:format>image/svg+xml</dc:format>
        <dc:creator>
          <cc:Agent>
            <dc:title>Matplotlib v3.5.2, https://matplotlib.org/</dc:title>
          </cc:Agent>
        </dc:creator>
      </cc:Work>
    </rdf:RDF>
  </metadata>
  <defs
     id="defs136">
    <style
       type="text/css"
       id="style134">*{stroke-linejoin: round; stroke-linecap: butt}</style>
  </defs>
  <g
     id="pane3d_1"
     transform="translate(-55.799296,-29.812629)">
    <g
       id="patch_3">
      <path
         d="M 68.934598,448.12798 236.66269,304.52271 233.73442,30.782716 56.091933,159.00813"
         style="opacity:0.95;fill:#f2f2f2;stroke:#f2f2f2;stroke-linejoin:miter"
         id="path144" />
    </g>
  </g>
  <g
     id="pane3d_2"
     transform="translate(-55.799296,-29.812629)">
    <g
       id="patch_4">
      <path
         d="M 236.66269,304.52271 507.40765,384.66599 519.38431,102.20549 233.73442,30.782716"
         style="opacity:0.95;fill:#f2f2f2;stroke:#f2f2f2;stroke-linejoin:miter"
         id="path148" />
    </g>
  </g>
  <g
     id="pane3d_3"
     transform="translate(-55.799296,-29.812629)">
    <g
       id="patch_5">
      <path
         d="M 68.934598,448.12798 354.59045,542.25158 507.40765,384.66599 236.66269,304.52271"
         style="opacity:0.95;fill:#f2f2f2;stroke:#f2f2f2;stroke-linejoin:miter"
         id="path152" />
    </g>
  </g>
  <g
     id="axis3d_1"
     transform="translate(-55.799296,-29.812629)">
    <g
       id="line2d_1">
      <path
         d="m 68.934598,448.12798 285.655852,94.1236"
         style="fill:none;stroke:#000000;stroke-width:0.8;stroke-linecap:square"
         id="path156" />
    </g>
    <g
       id="Line3DCollection_1">
      <path
         d="M 79.487571,451.60519 246.70082,307.4941 244.30051,33.424619"
         style="fill:none;stroke:#b0b0b0;stroke-width:0.8"
         id="path159" />
      <path
         d="M 123.62012,466.14686 288.65026,319.91156 288.47681,44.470287"
         style="fill:none;stroke:#b0b0b0;stroke-width:0.8"
         id="path161" />
      <path
         d="M 168.43166,480.91226 331.1956,332.50542 333.31445,55.681315"
         style="fill:none;stroke:#b0b0b0;stroke-width:0.8"
         id="path163" />
      <path
         d="M 213.93798,495.90659 374.3496,345.27944 378.82841,67.061444"
         style="fill:none;stroke:#b0b0b0;stroke-width:0.8"
         id="path165" />
      <path
         d="M 260.15537,511.13522 418.12542,358.23754 425.03409,78.614529"
         style="fill:none;stroke:#b0b0b0;stroke-width:0.8"
         id="path167" />
      <path
         d="M 307.10063,526.60369 462.53662,371.3837 471.94739,90.344545"
         style="fill:none;stroke:#b0b0b0;stroke-width:0.8"
         id="path169" />
    </g>
    <g
       id="xtick_1">
      <g
         id="line2d_2">
        <path
           d="m 79.487571,451.60519 v 0"
           style="fill:none;stroke:#000000;stroke-width:0.8;stroke-linecap:square"
           id="path172" />
      </g>
    </g>
    <g
       id="xtick_2">
      <g
         id="line2d_3">
        <path
           d="m 123.62012,466.14686 v 0"
           style="fill:none;stroke:#000000;stroke-width:0.8;stroke-linecap:square"
           id="path176" />
      </g>
    </g>
    <g
       id="xtick_3">
      <g
         id="line2d_4">
        <path
           d="m 168.43166,480.91226 v 0"
           style="fill:none;stroke:#000000;stroke-width:0.8;stroke-linecap:square"
           id="path180" />
      </g>
    </g>
    <g
       id="xtick_4">
      <g
         id="line2d_5">
        <path
           d="m 213.93798,495.90659 v 0"
           style="fill:none;stroke:#000000;stroke-width:0.8;stroke-linecap:square"
           id="path184" />
      </g>
    </g>
    <g
       id="xtick_5">
      <g
         id="line2d_6">
        <path
           d="m 260.15537,511.13522 v 0"
           style="fill:none;stroke:#000000;stroke-width:0.8;stroke-linecap:square"
           id="path188" />
      </g>
    </g>
    <g
       id="xtick_6">
      <g
         id="line2d_7">
        <path
           d="m 307.10063,526.60369 v 0"
           style="fill:none;stroke:#000000;stroke-width:0.8;stroke-linecap:square"
           id="path192" />
      </g>
    </g>
  </g>
  <g
     id="axis3d_2"
     transform="translate(-55.799296,-29.812629)">
    <g
       id="line2d_8">
      <path
         d="M 507.40765,384.66599 354.59045,542.25158"
         style="fill:none;stroke:#000000;stroke-width:0.8;stroke-linecap:square"
         id="path197" />
    </g>
    <g
       id="Line3DCollection_2">
      <path
         d="M 60.361785,155.92608 72.9491,444.69085 358.26141,538.46607"
         style="fill:none;stroke:#b0b0b0;stroke-width:0.8"
         id="path200" />
      <path
         d="M 90.765136,133.98041 101.55843,420.19614 384.4035,511.50827"
         style="fill:none;stroke:#b0b0b0;stroke-width:0.8"
         id="path202" />
      <path
         d="m 120.35038,112.62527 9.08834,283.70035 280.40866,88.94484"
         style="fill:none;stroke:#b0b0b0;stroke-width:0.8"
         id="path204" />
      <path
         d="m 149.15011,91.83713 7.46737,281.21861 278.00318,86.66843"
         style="fill:none;stroke:#b0b0b0;stroke-width:0.8"
         id="path206" />
      <path
         d="M 177.19519,71.593708 183.12086,350.3641 458.7495,434.84244"
         style="fill:none;stroke:#b0b0b0;stroke-width:0.8"
         id="path208" />
      <path
         d="m 204.5149,51.873869 4.45883,276.355551 273.28499,82.37023"
         style="fill:none;stroke:#b0b0b0;stroke-width:0.8"
         id="path210" />
    </g>
    <g
       id="xtick_7">
      <g
         id="line2d_9">
        <path
           d="m 358.26141,538.46607 v 0"
           style="fill:none;stroke:#000000;stroke-width:0.8;stroke-linecap:square"
           id="path213" />
      </g>
    </g>
    <g
       id="xtick_8">
      <g
         id="line2d_10">
        <path
           d="m 384.4035,511.50827 v 0"
           style="fill:none;stroke:#000000;stroke-width:0.8;stroke-linecap:square"
           id="path217" />
      </g>
    </g>
    <g
       id="xtick_9">
      <g
         id="line2d_11">
        <path
           d="m 409.84738,485.27046 v 0"
           style="fill:none;stroke:#000000;stroke-width:0.8;stroke-linecap:square"
           id="path221" />
      </g>
    </g>
    <g
       id="xtick_10">
      <g
         id="line2d_12">
        <path
           d="m 434.62066,459.72417 v 0"
           style="fill:none;stroke:#000000;stroke-width:0.8;stroke-linecap:square"
           id="path225" />
      </g>
    </g>
    <g
       id="xtick_11">
      <g
         id="line2d_13">
        <path
           d="m 458.7495,434.84244 v 0"
           style="fill:none;stroke:#000000;stroke-width:0.8;stroke-linecap:square"
           id="path229" />
      </g>
    </g>
    <g
       id="xtick_12">
      <g
         id="line2d_14">
        <path
           d="m 482.25872,410.59965 v 0"
           style="fill:none;stroke:#000000;stroke-width:0.8;stroke-linecap:square"
           id="path233" />
      </g>
    </g>
  </g>
  <g
     id="axis3d_3"
     transform="translate(-55.799296,-29.812629)">
    <g
       id="line2d_15">
      <path
         d="m 507.40765,384.66599 11.97666,-282.4605"
         style="fill:none;stroke:#000000;stroke-width:0.8;stroke-linecap:square"
         id="path238" />
    </g>
    <g
       id="Line3DCollection_3">
      <path
         d="M 508.89352,349.62298 236.29863,270.48953 67.343972,412.31909"
         style="fill:none;stroke:#b0b0b0;stroke-width:0.8"
         id="path241" />
      <path
         d="M 510.7536,305.75435 235.84318,227.91388 65.351677,367.46765"
         style="fill:none;stroke:#b0b0b0;stroke-width:0.8"
         id="path243" />
      <path
         d="M 512.64585,261.12716 235.38022,184.63488 63.323713,321.81321"
         style="fill:none;stroke:#b0b0b0;stroke-width:0.8"
         id="path245" />
      <path
         d="M 514.5711,215.72156 234.90954,140.63495 61.259112,275.33399"
         style="fill:none;stroke:#b0b0b0;stroke-width:0.8"
         id="path247" />
      <path
         d="M 516.53023,169.51701 234.43095,95.895921 59.156874,228.00745"
         style="fill:none;stroke:#b0b0b0;stroke-width:0.8"
         id="path249" />
      <path
         d="M 518.52413,122.49222 233.94426,50.399013 57.015958,179.8102"
         style="fill:none;stroke:#b0b0b0;stroke-width:0.8"
         id="path251" />
    </g>
    <g
       id="xtick_13">
      <g
         id="line2d_16">
        <path
           d="m 508.89352,349.62298 v 0"
           style="fill:none;stroke:#000000;stroke-width:0.8;stroke-linecap:square"
           id="path254" />
      </g>
    </g>
    <g
       id="xtick_14">
      <g
         id="line2d_17">
        <path
           d="m 510.7536,305.75435 v 0"
           style="fill:none;stroke:#000000;stroke-width:0.8;stroke-linecap:square"
           id="path258" />
      </g>
    </g>
    <g
       id="xtick_15">
      <g
         id="line2d_18">
        <path
           d="m 512.64585,261.12716 v 0"
           style="fill:none;stroke:#000000;stroke-width:0.8;stroke-linecap:square"
           id="path262" />
      </g>
    </g>
    <g
       id="xtick_16">
      <g
         id="line2d_19">
        <path
           d="m 514.5711,215.72156 v 0"
           style="fill:none;stroke:#000000;stroke-width:0.8;stroke-linecap:square"
           id="path266" />
      </g>
    </g>
    <g
       id="xtick_17">
      <g
         id="line2d_20">
        <path
           d="m 516.53023,169.51701 v 0"
           style="fill:none;stroke:#000000;stroke-width:0.8;stroke-linecap:square"
           id="path270" />
      </g>
    </g>
    <g
       id="xtick_18">
      <g
         id="line2d_21">
        <path
           d="m 518.52413,122.49222 v 0"
           style="fill:none;stroke:#000000;stroke-width:0.8;stroke-linecap:square"
           id="path274" />
      </g>
    </g>
  </g>
  <g
     id="axes_1"
     transform="translate(-55.799296,-29.812629)">
    <g
       id="line2d_22">
      <path
         d="m 252.11666,147.61621 1.39246,0.98843 10.4002,8.00611 11.16991,8.99598 11.12299,9.30873 10.32434,8.92441 10.20432,9.065 12.30672,11.25218 11.81946,11.13975 11.49518,11.1698 10.97682,11.01506 10.18036,10.57826 9.25685,9.99803 8.0263,9.0527 6.41436,7.58534 5.36779,6.66955 4.71271,6.20719 3.92651,5.53046 3.18447,4.85536 2.63428,4.41571 2.08512,3.92736 1.57928,3.4416 1.15067,3.02757 0.78525,2.67687 0.46563,2.35591 0.19097,2.08799 -0.0497,1.84195 -0.26114,1.6352 -0.45447,1.46263 -0.64257,1.32144 -0.82327,1.18631 -1.02233,1.0806 -1.22636,0.97236 -1.47891,0.88444 -1.75275,0.78339 -2.04539,0.6694 -2.41355,0.55489 -2.84977,0.42329 -3.3312,0.26617 -3.93084,0.0848 -4.50985,-0.12483 -5.17158,-0.35731 -6.20579,-0.65271 -7.99508,-1.0874 -9.03678,-1.46764 -10.71262,-1.94563 -15.45974,-3.02452 -38.17258,-7.55256 -14.37155,-2.57601 -11.77841,-1.8928 -10.45496,-1.46004 -9.13092,-1.06052 -8.61357,-0.77582 -7.38852,-0.44986 -7.13533,-0.2056 -6.03544,0.0374 -5.47608,0.24187 -5.18698,0.4522 -4.71866,0.64245 -4.12108,0.78569 -3.63938,0.91409 -3.22259,1.02889 -2.86112,1.13589 -2.5454,1.24067 -2.24353,1.33371 -1.97608,1.43089 -1.6991,1.50295 -1.45274,1.58148 -1.20299,1.63287 -0.98967,1.71226 -0.7866,1.80582 -0.57981,1.89506 -0.37012,1.97936 -0.159,2.08041 0.0582,2.15338 0.2791,2.24183 0.51142,2.3459 0.75393,2.44085 1.00465,2.5242 1.26129,2.59336 1.53588,2.66911 1.83323,2.74707 2.1195,2.77528 2.38201,2.75013 2.63188,2.69289 2.79826,2.54443 2.88816,2.33377 3.01639,2.15533 3.11715,1.94977 3.03958,1.64191 2.98236,1.36327 2.90185,1.08612 2.80119,0.81347 2.63567,0.53971 2.48381,0.28969 2.32484,0.0573 2.18398,-0.15853 2.03958,-0.36046 1.91398,-0.55447 1.78601,-0.7392 1.69331,-0.93681 1.59398,-1.13719 1.48834,-1.33986 1.39117,-1.5623 1.27154,-1.77213 1.15872,-2.00496 1.03739,-2.24452 0.91668,-2.51782 0.78332,-2.80403 0.64291,-3.13481 0.48496,-3.48438 0.3096,-3.85182 0.11725,-4.23596 -0.0933,-4.67771 -0.32176,-5.09558 -0.57611,-5.6183 -0.86995,-6.26247 -1.17843,-6.83696 -1.52882,-7.53008 -1.89017,-8.18501 -2.3612,-9.19569 -2.72608,-9.74334 -3.53249,-11.74165 -4.37009,-13.64412 -5.50264,-16.36235 -8.78486,-25.28133 -7.56626,-22.00373 -4.2281,-12.96667 -3.06597,-10.12657 -2.18009,-7.96148 -1.64284,-6.84486 -1.072,-5.35852 -0.75949,-4.97581 -0.40288,-4.18537 -0.10392,-3.22925 0.11085,-2.79203 0.31201,-2.46656 0.49855,-2.1292 0.66153,-1.79224 0.77131,-1.43467 0.87939,-1.17725 1.03561,-1.00435 1.1176,-0.76842 1.19747,-0.57726 1.52384,-0.47204 1.75534,-0.26537 1.76005,-0.0384 1.87821,0.14344 2.50815,0.42323 3.00575,0.78544 3.43165,1.18127 3.89173,1.62287 4.22397,2.02685 4.46879,2.38413 4.82782,2.80037 5.32745,3.31359 6.25178,4.14013 7.9376,5.56549 5.43502,4.03926 0.0419,0.0375 v 0"
         clip-path="url(#p144ef0ccd5)"
         style="fill:none;stroke:#0000ff;stroke-width:1.5;stroke-dasharray:5.55, 2.4;stroke-dashoffset:0"
         id="path279" />
    </g>
    <g
       id="line2d_23">
      <path
         d="m 277.1641,196.95074 1.51101,-0.89174 1.2868,-0.55103 1.52573,-0.42887 2.30486,-0.36778 1.98036,-0.0629 2.24746,0.21123 2.42887,0.48908 2.58504,0.79891 1.8272,0.77025 1.89708,0.97945 2.9226,1.79779 2.99422,2.15787 3.08239,2.59401 3.14701,2.97145 4.24717,4.28565 6.52311,6.98568 6.59015,6.92895 5.48295,5.44338 4.28167,3.95147 5.13765,4.4636 10.71724,9.11585 2.19321,2.16254 1.90389,2.21331 1.59929,2.32997 1.30359,2.45404 0.66507,1.70305 0.46704,1.76531 0.27037,1.83571 0.0954,1.90443 -0.0734,1.95772 -0.26512,1.98899 -0.48046,2.00601 -0.68768,2.02443 -1.34713,3.07989 -1.67559,3.07724 -2.00779,2.99537 -2.27835,2.94776 -3.28272,3.90357 -5.15746,5.65614 -4.25214,4.77437 -3.14385,3.84413 -2.96656,3.94861 -2.70746,3.98015 -5.58826,8.64482 -2.47705,3.39773 -1.34798,1.55602 -1.45339,1.44254 -1.53729,1.30627 -1.61505,1.16115 -1.72701,1.03201 -1.88154,0.92694 -2.04384,0.82718 -2.18122,0.71435 -3.49756,0.87055 -6.51848,1.24241 -7.22415,1.13685 -6.13197,1.04127 -7.90772,1.65968 -4.77771,1.1592 -4.72578,1.37947 -7.66143,2.55855 -5.8566,2.20078 -13.12549,5.21342 -3.44233,1.22548 -3.24658,0.92725 -3.03164,0.6188 -2.71982,0.29409 -1.65371,-0.0109 -1.55108,-0.17917 -1.42873,-0.33448 -1.26022,-0.4775 -1.0691,-0.61624 -0.89799,-0.75307 -0.75026,-0.87972 -0.58537,-0.98402 -0.37496,-1.06092 -0.14356,-1.11816 0.0627,-1.16836 0.23662,-1.21183 0.41553,-1.23247 0.62595,-1.21741 0.84457,-1.17812 1.5993,-1.7023 1.91159,-1.63337 1.45428,-1.01065 2.42796,-1.36142 3.50183,-1.65784 3.671,-1.51265 5.45752,-2.10523 3.36226,-1.54443 2.26102,-1.23435 1.35001,-0.92096 1.21803,-1.02212 1.0741,-1.10338 0.90974,-1.16258 0.72998,-1.23069 0.54781,-1.32817 0.36866,-1.43491 0.18827,-1.51388 0.002,-1.55673 -0.18775,-1.59218 -0.37676,-1.64628 -0.55872,-1.70808 -1.15131,-2.62277 -1.49411,-2.61886 -1.82902,-2.62887 -2.13555,-2.65672 -2.37181,-2.65104 -3.48262,-3.50862 -5.78194,-5.32286 -9.04098,-8.30872 -2.85402,-2.97581 -2.62962,-3.07459 -1.58289,-2.11807 -1.41709,-2.2138 -1.22976,-2.32495 -1.02173,-2.41906 -0.79442,-2.49484 -0.55799,-2.5785 -0.32993,-2.68072 -0.12194,-2.77603 0.0671,-2.83274 0.23879,-2.84544 0.60545,-4.21859 1.23294,-6.52932 1.49365,-6.72211 0.66309,-2.322 0.29114,-0.38891 0.35273,-0.11042 0.42563,0.13519 2.03235,1.05451 1.5654,0.44906 1.20633,0.18795 1.31019,0.0336 1.39577,-0.18315 1.454,-0.41677 1.47876,-0.6144 2.19763,-1.21099 1.41094,-1.00176 1.99004,-1.78324 3.66547,-3.86681 4.01407,-4.2608 1.88932,-1.51548 1.99315,-1.34639 2.13081,-1.19564 3.08601,-1.38056 11.23106,-4.64351 2.31192,-1.27134 2.7433,-1.85131 3.43848,-2.57542 v 0"
         clip-path="url(#p144ef0ccd5)"
         style="fill:none;stroke:#ff0000;stroke-width:1.5;stroke-linecap:square"
         id="path282" />
    </g>
  </g>
  <defs
     id="defs290">
    <clipPath
       id="p144ef0ccd5">
      <rect
         x="7.1999998"
         y="7.1999998"
         width="554.40002"
         height="554.40002"
         id="rect287" />
    </clipPath>
  </defs>
</svg>
